<mxfile host="app.diagrams.net" modified="2023-01-10T07:38:47.419Z" agent="5.0 (Windows NT 10.0; WOW64) AppleWebKit/537.36 (KHTML, like Gecko) Chrome/87.0.4280.66 Safari/537.36" etag="ib4u_D4JnYQDg4w6-MkK" version="20.7.4" type="github" pages="3">
  <diagram id="xxfAbRhhRLg27VgUF0_M" name="容器图">
    <mxGraphModel dx="-2701" dy="-405" grid="1" gridSize="10" guides="1" tooltips="1" connect="1" arrows="1" fold="1" page="1" pageScale="1" pageWidth="827" pageHeight="1169" math="0" shadow="0">
      <root>
        <mxCell id="0" />
        <mxCell id="1" parent="0" />
        <object placeholders="1" c4Name="依赖服务" c4Type="SystemScopeBoundary" c4Application="" label="&lt;font style=&quot;font-size: 16px&quot;&gt;&lt;b&gt;&lt;div style=&quot;text-align: left&quot;&gt;%c4Name%&lt;/div&gt;&lt;/b&gt;&lt;/font&gt;&lt;div style=&quot;text-align: left&quot;&gt;[%c4Application%]&lt;/div&gt;" id="JywmvB-vhrz7vm3U-4dp-1">
          <mxCell style="rounded=1;fontSize=11;whiteSpace=wrap;html=1;dashed=1;arcSize=20;fillColor=#dae8fc;strokeColor=#6c8ebf;labelBackgroundColor=none;align=left;verticalAlign=bottom;labelBorderColor=none;spacingTop=0;spacing=10;dashPattern=8 4;metaEdit=1;rotatable=0;perimeter=rectanglePerimeter;noLabel=0;labelPadding=0;allowArrows=0;connectable=0;expand=0;recursiveResize=0;editable=1;pointerEvents=0;absoluteArcSize=1;points=[[0.25,0,0],[0.5,0,0],[0.75,0,0],[1,0.25,0],[1,0.5,0],[1,0.75,0],[0.75,1,0],[0.5,1,0],[0.25,1,0],[0,0.75,0],[0,0.5,0],[0,0.25,0]];" parent="1" vertex="1">
            <mxGeometry x="5453" y="2315" width="883" height="215" as="geometry" />
          </mxCell>
        </object>
        <object placeholders="1" c4Name="数据库" c4Type="SystemScopeBoundary" c4Application="Software System" label="&lt;font style=&quot;font-size: 16px&quot;&gt;&lt;b&gt;&lt;div style=&quot;text-align: left&quot;&gt;%c4Name%&lt;/div&gt;&lt;/b&gt;&lt;/font&gt;&lt;div style=&quot;text-align: left&quot;&gt;[%c4Application%]&lt;/div&gt;" id="JywmvB-vhrz7vm3U-4dp-2">
          <mxCell style="rounded=1;fontSize=11;whiteSpace=wrap;html=1;dashed=1;arcSize=20;fillColor=#E6D0DE;strokeColor=#666666;fontColor=#333333;labelBackgroundColor=none;align=left;verticalAlign=bottom;labelBorderColor=none;spacingTop=0;spacing=10;dashPattern=8 4;metaEdit=1;rotatable=0;perimeter=rectanglePerimeter;noLabel=0;labelPadding=0;allowArrows=0;connectable=0;expand=0;recursiveResize=0;editable=1;pointerEvents=0;absoluteArcSize=1;points=[[0.25,0,0],[0.5,0,0],[0.75,0,0],[1,0.25,0],[1,0.5,0],[1,0.75,0],[0.75,1,0],[0.5,1,0],[0.25,1,0],[0,0.75,0],[0,0.5,0],[0,0.25,0]];" parent="1" vertex="1">
            <mxGeometry x="4695" y="2649" width="718" height="252" as="geometry" />
          </mxCell>
        </object>
        <mxCell id="JywmvB-vhrz7vm3U-4dp-3" style="edgeStyle=orthogonalEdgeStyle;rounded=0;orthogonalLoop=1;jettySize=auto;html=1;entryX=0.5;entryY=1;entryDx=0;entryDy=0;fontSize=15;fontColor=#000000;" parent="1" source="JywmvB-vhrz7vm3U-4dp-7" target="JywmvB-vhrz7vm3U-4dp-34" edge="1">
          <mxGeometry relative="1" as="geometry">
            <Array as="points">
              <mxPoint x="5196" y="2228" />
              <mxPoint x="5347" y="2228" />
            </Array>
          </mxGeometry>
        </mxCell>
        <mxCell id="JywmvB-vhrz7vm3U-4dp-4" style="edgeStyle=orthogonalEdgeStyle;rounded=0;orthogonalLoop=1;jettySize=auto;html=1;exitX=0.25;exitY=0;exitDx=0;exitDy=0;exitPerimeter=0;fontSize=15;fontColor=#000000;" parent="1" source="JywmvB-vhrz7vm3U-4dp-7" target="JywmvB-vhrz7vm3U-4dp-35" edge="1">
          <mxGeometry relative="1" as="geometry" />
        </mxCell>
        <mxCell id="JywmvB-vhrz7vm3U-4dp-5" style="edgeStyle=orthogonalEdgeStyle;rounded=0;orthogonalLoop=1;jettySize=auto;html=1;exitX=0.75;exitY=0;exitDx=0;exitDy=0;exitPerimeter=0;entryX=0.75;entryY=1;entryDx=0;entryDy=0;dashed=1;fontSize=15;fontColor=#000000;" parent="1" source="JywmvB-vhrz7vm3U-4dp-7" target="JywmvB-vhrz7vm3U-4dp-34" edge="1">
          <mxGeometry relative="1" as="geometry">
            <Array as="points">
              <mxPoint x="5276" y="2337" />
              <mxPoint x="5276" y="2262" />
              <mxPoint x="5367" y="2262" />
            </Array>
          </mxGeometry>
        </mxCell>
        <mxCell id="JywmvB-vhrz7vm3U-4dp-6" value="QMQ&lt;br&gt;变更广播" style="edgeLabel;html=1;align=center;verticalAlign=middle;resizable=0;points=[];fontSize=15;fontColor=#000000;" parent="JywmvB-vhrz7vm3U-4dp-5" vertex="1" connectable="0">
          <mxGeometry x="-0.4931" y="-3" relative="1" as="geometry">
            <mxPoint as="offset" />
          </mxGeometry>
        </mxCell>
        <object placeholders="1" c4Name="POI 中台服务" c4Type="支持业务配置" c4Description="" label="&lt;font style=&quot;font-size: 16px&quot;&gt;&lt;b&gt;%c4Name%&lt;/b&gt;&lt;/font&gt;&lt;div&gt;[%c4Type%]&lt;/div&gt;&lt;br&gt;&lt;div&gt;&lt;font style=&quot;font-size: 11px&quot;&gt;&lt;font color=&quot;#cccccc&quot;&gt;%c4Description%&lt;/font&gt;&lt;/div&gt;" id="JywmvB-vhrz7vm3U-4dp-7">
          <mxCell style="rounded=1;whiteSpace=wrap;html=1;labelBackgroundColor=none;fillColor=#1061B0;fontColor=#ffffff;align=center;arcSize=10;strokeColor=#0D5091;metaEdit=1;resizable=0;points=[[0.25,0,0],[0.5,0,0],[0.75,0,0],[1,0.25,0],[1,0.5,0],[1,0.75,0],[0.75,1,0],[0.5,1,0],[0.25,1,0],[0,0.75,0],[0,0.5,0],[0,0.25,0]];" parent="1" vertex="1">
            <mxGeometry x="5076" y="2337" width="240" height="120" as="geometry" />
          </mxCell>
        </object>
        <mxCell id="JywmvB-vhrz7vm3U-4dp-8" style="edgeStyle=orthogonalEdgeStyle;rounded=0;orthogonalLoop=1;jettySize=auto;html=1;" parent="1" source="JywmvB-vhrz7vm3U-4dp-10" target="JywmvB-vhrz7vm3U-4dp-7" edge="1">
          <mxGeometry relative="1" as="geometry">
            <Array as="points">
              <mxPoint x="4863" y="2585" />
              <mxPoint x="5136" y="2585" />
            </Array>
          </mxGeometry>
        </mxCell>
        <mxCell id="JywmvB-vhrz7vm3U-4dp-9" value="业务关联城市，" style="edgeLabel;html=1;align=center;verticalAlign=middle;resizable=0;points=[];fontStyle=1;fontSize=15;" parent="JywmvB-vhrz7vm3U-4dp-8" vertex="1" connectable="0">
          <mxGeometry x="0.2058" y="1" relative="1" as="geometry">
            <mxPoint as="offset" />
          </mxGeometry>
        </mxCell>
        <object placeholders="1" c4Type="POI 数据库" c4Container="Oceanbase" c4Technology="" c4Description="" label="&lt;font style=&quot;font-size: 16px&quot;&gt;&lt;b&gt;%c4Type%&lt;/font&gt;&lt;div&gt;[%c4Container%:&amp;nbsp;%c4Technology%]&lt;/div&gt;&lt;br&gt;&lt;div&gt;&lt;font style=&quot;font-size: 11px&quot;&gt;&lt;font color=&quot;#E6E6E6&quot;&gt;%c4Description%&lt;/font&gt;&lt;/div&gt;" id="JywmvB-vhrz7vm3U-4dp-10">
          <mxCell style="shape=cylinder3;size=15;whiteSpace=wrap;html=1;boundedLbl=1;rounded=0;labelBackgroundColor=none;fillColor=#23A2D9;fontSize=12;fontColor=#ffffff;align=center;strokeColor=#0E7DAD;metaEdit=1;points=[[0.5,0,0],[1,0.25,0],[1,0.5,0],[1,0.75,0],[0.5,1,0],[0,0.75,0],[0,0.5,0],[0,0.25,0]];resizable=0;" parent="1" vertex="1">
            <mxGeometry x="4743" y="2720" width="240" height="120" as="geometry" />
          </mxCell>
        </object>
        <mxCell id="JywmvB-vhrz7vm3U-4dp-11" style="edgeStyle=orthogonalEdgeStyle;rounded=0;orthogonalLoop=1;jettySize=auto;html=1;" parent="1" source="JywmvB-vhrz7vm3U-4dp-12" target="JywmvB-vhrz7vm3U-4dp-19" edge="1">
          <mxGeometry relative="1" as="geometry">
            <mxPoint x="5615" y="2535.0000000000005" as="sourcePoint" />
          </mxGeometry>
        </mxCell>
        <object placeholders="1" c4Type="业务机场，火车站，酒店" c4Container="ES " c4Technology="" c4Description="" label="&lt;font style=&quot;font-size: 16px&quot;&gt;&lt;b&gt;%c4Type%&lt;/font&gt;&lt;div&gt;[%c4Container%:&amp;nbsp;%c4Technology%]&lt;/div&gt;&lt;br&gt;&lt;div&gt;&lt;font style=&quot;font-size: 11px&quot;&gt;&lt;font color=&quot;#E6E6E6&quot;&gt;%c4Description%&lt;/font&gt;&lt;/div&gt;" id="JywmvB-vhrz7vm3U-4dp-12">
          <mxCell style="shape=cylinder3;size=15;whiteSpace=wrap;html=1;boundedLbl=1;rounded=0;labelBackgroundColor=none;fillColor=#23A2D9;fontSize=12;fontColor=#ffffff;align=center;strokeColor=#0E7DAD;metaEdit=1;points=[[0.5,0,0],[1,0.25,0],[1,0.5,0],[1,0.75,0],[0.5,1,0],[0,0.75,0],[0,0.5,0],[0,0.25,0]];resizable=0;" parent="1" vertex="1">
            <mxGeometry x="5495" y="2555" width="240" height="120" as="geometry" />
          </mxCell>
        </object>
        <object placeholders="1" c4Name="图商 POI" c4Type="实时接口" c4Description="" label="&lt;font style=&quot;font-size: 16px&quot;&gt;&lt;b&gt;%c4Name%&lt;/b&gt;&lt;/font&gt;&lt;div&gt;[%c4Type%]&lt;/div&gt;&lt;br&gt;&lt;div&gt;&lt;font style=&quot;font-size: 11px&quot;&gt;&lt;font color=&quot;#cccccc&quot;&gt;%c4Description%&lt;/font&gt;&lt;/div&gt;" id="JywmvB-vhrz7vm3U-4dp-13">
          <mxCell style="rounded=1;whiteSpace=wrap;html=1;labelBackgroundColor=none;fillColor=#8C8496;fontColor=#ffffff;align=center;arcSize=10;strokeColor=#736782;metaEdit=1;resizable=0;points=[[0.25,0,0],[0.5,0,0],[0.75,0,0],[1,0.25,0],[1,0.5,0],[1,0.75,0],[0.75,1,0],[0.5,1,0],[0.25,1,0],[0,0.75,0],[0,0.5,0],[0,0.25,0]];" parent="1" vertex="1">
            <mxGeometry x="6064" y="2351" width="240" height="120" as="geometry" />
          </mxCell>
        </object>
        <mxCell id="JywmvB-vhrz7vm3U-4dp-14" style="edgeStyle=orthogonalEdgeStyle;rounded=0;orthogonalLoop=1;jettySize=auto;html=1;" parent="1" source="JywmvB-vhrz7vm3U-4dp-18" target="JywmvB-vhrz7vm3U-4dp-10" edge="1">
          <mxGeometry relative="1" as="geometry" />
        </mxCell>
        <mxCell id="JywmvB-vhrz7vm3U-4dp-15" value="POI的业务配置" style="edgeLabel;html=1;align=center;verticalAlign=middle;resizable=0;points=[];" parent="JywmvB-vhrz7vm3U-4dp-14" vertex="1" connectable="0">
          <mxGeometry x="-0.2949" y="3" relative="1" as="geometry">
            <mxPoint x="12" y="3" as="offset" />
          </mxGeometry>
        </mxCell>
        <mxCell id="JywmvB-vhrz7vm3U-4dp-16" style="edgeStyle=orthogonalEdgeStyle;rounded=0;orthogonalLoop=1;jettySize=auto;html=1;entryX=0.5;entryY=1;entryDx=0;entryDy=0;entryPerimeter=0;" parent="1" source="JywmvB-vhrz7vm3U-4dp-18" target="JywmvB-vhrz7vm3U-4dp-26" edge="1">
          <mxGeometry relative="1" as="geometry">
            <Array as="points">
              <mxPoint x="4519" y="2928" />
              <mxPoint x="5196" y="2928" />
            </Array>
          </mxGeometry>
        </mxCell>
        <mxCell id="JywmvB-vhrz7vm3U-4dp-17" value="基础数据业务配置" style="edgeLabel;html=1;align=center;verticalAlign=middle;resizable=0;points=[];" parent="JywmvB-vhrz7vm3U-4dp-16" vertex="1" connectable="0">
          <mxGeometry x="-0.519" y="1" relative="1" as="geometry">
            <mxPoint x="-1" as="offset" />
          </mxGeometry>
        </mxCell>
        <object placeholders="1" c4Name="" c4Type="POI portal系统" c4Description="" label="&lt;font style=&quot;font-size: 16px&quot;&gt;&lt;b&gt;%c4Name%&lt;/b&gt;&lt;/font&gt;&lt;div&gt;[%c4Type%]&lt;/div&gt;&lt;br&gt;&lt;div&gt;&lt;font style=&quot;font-size: 11px&quot;&gt;&lt;font color=&quot;#cccccc&quot;&gt;%c4Description%&lt;/font&gt;&lt;/div&gt;" id="JywmvB-vhrz7vm3U-4dp-18">
          <mxCell style="rounded=1;whiteSpace=wrap;html=1;labelBackgroundColor=none;fillColor=#1061B0;fontColor=#ffffff;align=center;arcSize=10;strokeColor=#0D5091;metaEdit=1;resizable=0;points=[[0.25,0,0],[0.5,0,0],[0.75,0,0],[1,0.25,0],[1,0.5,0],[1,0.75,0],[0.75,1,0],[0.5,1,0],[0.25,1,0],[0,0.75,0],[0,0.5,0],[0,0.25,0]];" parent="1" vertex="1">
            <mxGeometry x="4373" y="2720" width="240" height="120" as="geometry" />
          </mxCell>
        </object>
        <object placeholders="1" c4Name="POI 搜索服务" c4Type="酒店，火车站，机场" c4Description="" label="&lt;font style=&quot;font-size: 16px&quot;&gt;&lt;b&gt;%c4Name%&lt;/b&gt;&lt;/font&gt;&lt;div&gt;[%c4Type%]&lt;/div&gt;&lt;br&gt;&lt;div&gt;&lt;font style=&quot;font-size: 11px&quot;&gt;&lt;font color=&quot;#cccccc&quot;&gt;%c4Description%&lt;/font&gt;&lt;/div&gt;" id="JywmvB-vhrz7vm3U-4dp-19">
          <mxCell style="rounded=1;whiteSpace=wrap;html=1;labelBackgroundColor=none;fillColor=#1061B0;fontColor=#ffffff;align=center;arcSize=10;strokeColor=#0D5091;metaEdit=1;resizable=0;points=[[0.25,0,0],[0.5,0,0],[0.75,0,0],[1,0.25,0],[1,0.5,0],[1,0.75,0],[0.75,1,0],[0.5,1,0],[0.25,1,0],[0,0.75,0],[0,0.5,0],[0,0.25,0]];" parent="1" vertex="1">
            <mxGeometry x="5495" y="2354" width="240" height="120" as="geometry" />
          </mxCell>
        </object>
        <object placeholders="1" c4Name="IGGI 数据" c4Type="中台服务" c4Description="" label="&lt;font style=&quot;font-size: 16px&quot;&gt;&lt;b&gt;%c4Name%&lt;/b&gt;&lt;/font&gt;&lt;div&gt;[%c4Type%]&lt;/div&gt;&lt;br&gt;&lt;div&gt;&lt;font style=&quot;font-size: 11px&quot;&gt;&lt;font color=&quot;#cccccc&quot;&gt;%c4Description%&lt;/font&gt;&lt;/div&gt;" id="JywmvB-vhrz7vm3U-4dp-20">
          <mxCell style="rounded=1;whiteSpace=wrap;html=1;labelBackgroundColor=none;fillColor=#8C8496;fontColor=#ffffff;align=center;arcSize=10;strokeColor=#736782;metaEdit=1;resizable=0;points=[[0.25,0,0],[0.5,0,0],[0.75,0,0],[1,0.25,0],[1,0.5,0],[1,0.75,0],[0.75,1,0],[0.5,1,0],[0.25,1,0],[0,0.75,0],[0,0.5,0],[0,0.25,0]];" parent="1" vertex="1">
            <mxGeometry x="5779" y="2354" width="240" height="120" as="geometry" />
          </mxCell>
        </object>
        <mxCell id="JywmvB-vhrz7vm3U-4dp-21" style="edgeStyle=orthogonalEdgeStyle;rounded=0;orthogonalLoop=1;jettySize=auto;html=1;" parent="1" source="JywmvB-vhrz7vm3U-4dp-26" target="JywmvB-vhrz7vm3U-4dp-28" edge="1">
          <mxGeometry relative="1" as="geometry" />
        </mxCell>
        <mxCell id="JywmvB-vhrz7vm3U-4dp-22" style="edgeStyle=orthogonalEdgeStyle;rounded=0;orthogonalLoop=1;jettySize=auto;html=1;entryX=0.5;entryY=1;entryDx=0;entryDy=0;entryPerimeter=0;" parent="1" source="JywmvB-vhrz7vm3U-4dp-26" target="JywmvB-vhrz7vm3U-4dp-7" edge="1">
          <mxGeometry relative="1" as="geometry" />
        </mxCell>
        <mxCell id="JywmvB-vhrz7vm3U-4dp-23" value="全量缓存&lt;br style=&quot;font-size: 15px;&quot;&gt;读取基础数据业务配置" style="edgeLabel;html=1;align=center;verticalAlign=middle;resizable=0;points=[];fontStyle=1;fontSize=15;" parent="JywmvB-vhrz7vm3U-4dp-22" vertex="1" connectable="0">
          <mxGeometry x="0.296" y="4" relative="1" as="geometry">
            <mxPoint x="4" y="60" as="offset" />
          </mxGeometry>
        </mxCell>
        <mxCell id="JywmvB-vhrz7vm3U-4dp-24" style="edgeStyle=orthogonalEdgeStyle;rounded=0;orthogonalLoop=1;jettySize=auto;html=1;entryX=0.825;entryY=1.009;entryDx=0;entryDy=0;entryPerimeter=0;fontSize=15;fontColor=#000000;dashed=1;" parent="1" source="JywmvB-vhrz7vm3U-4dp-26" target="JywmvB-vhrz7vm3U-4dp-7" edge="1">
          <mxGeometry relative="1" as="geometry">
            <Array as="points">
              <mxPoint x="5274" y="2658" />
              <mxPoint x="5274" y="2658" />
            </Array>
          </mxGeometry>
        </mxCell>
        <mxCell id="JywmvB-vhrz7vm3U-4dp-25" value="Binlog" style="edgeLabel;html=1;align=center;verticalAlign=middle;resizable=0;points=[];fontSize=15;fontColor=#000000;" parent="JywmvB-vhrz7vm3U-4dp-24" vertex="1" connectable="0">
          <mxGeometry x="-0.7251" y="2" relative="1" as="geometry">
            <mxPoint x="-2" y="-135" as="offset" />
          </mxGeometry>
        </mxCell>
        <object placeholders="1" c4Type="机场，火车站，酒店" c4Container="Mysql" c4Technology="" c4Description="" label="&lt;font style=&quot;font-size: 16px&quot;&gt;&lt;b&gt;%c4Type%&lt;/font&gt;&lt;div&gt;[%c4Container%:&amp;nbsp;%c4Technology%]&lt;/div&gt;&lt;br&gt;&lt;div&gt;&lt;font style=&quot;font-size: 11px&quot;&gt;&lt;font color=&quot;#E6E6E6&quot;&gt;%c4Description%&lt;/font&gt;&lt;/div&gt;" id="JywmvB-vhrz7vm3U-4dp-26">
          <mxCell style="shape=cylinder3;size=15;whiteSpace=wrap;html=1;boundedLbl=1;rounded=0;labelBackgroundColor=none;fillColor=#8C8496;fontSize=12;fontColor=#ffffff;align=center;strokeColor=#0E7DAD;metaEdit=1;points=[[0.5,0,0],[1,0.25,0],[1,0.5,0],[1,0.75,0],[0.5,1,0],[0,0.75,0],[0,0.5,0],[0,0.25,0]];resizable=0;" parent="1" vertex="1">
            <mxGeometry x="5076" y="2720" width="240" height="120" as="geometry" />
          </mxCell>
        </object>
        <mxCell id="JywmvB-vhrz7vm3U-4dp-27" style="edgeStyle=orthogonalEdgeStyle;rounded=0;orthogonalLoop=1;jettySize=auto;html=1;" parent="1" source="JywmvB-vhrz7vm3U-4dp-28" target="JywmvB-vhrz7vm3U-4dp-12" edge="1">
          <mxGeometry relative="1" as="geometry" />
        </mxCell>
        <object placeholders="1" c4Name="POI JOB服务" c4Type="" c4Description="" label="&lt;font style=&quot;font-size: 16px&quot;&gt;&lt;b&gt;%c4Name%&lt;/b&gt;&lt;/font&gt;&lt;div&gt;[%c4Type%]&lt;/div&gt;&lt;br&gt;&lt;div&gt;&lt;font style=&quot;font-size: 11px&quot;&gt;&lt;font color=&quot;#cccccc&quot;&gt;%c4Description%&lt;/font&gt;&lt;/div&gt;" id="JywmvB-vhrz7vm3U-4dp-28">
          <mxCell style="rounded=1;whiteSpace=wrap;html=1;labelBackgroundColor=none;fillColor=#1061B0;fontColor=#ffffff;align=center;arcSize=10;strokeColor=#0D5091;metaEdit=1;resizable=0;points=[[0.25,0,0],[0.5,0,0],[0.75,0,0],[1,0.25,0],[1,0.5,0],[1,0.75,0],[0.75,1,0],[0.5,1,0],[0.25,1,0],[0,0.75,0],[0,0.5,0],[0,0.25,0]];" parent="1" vertex="1">
            <mxGeometry x="5495" y="2720" width="240" height="120" as="geometry" />
          </mxCell>
        </object>
        <mxCell id="JywmvB-vhrz7vm3U-4dp-29" value="" style="shape=flexArrow;endArrow=classic;html=1;rounded=0;" parent="1" edge="1">
          <mxGeometry width="50" height="50" relative="1" as="geometry">
            <mxPoint x="5424" y="2396.2900000000004" as="sourcePoint" />
            <mxPoint x="5330" y="2396.2900000000004" as="targetPoint" />
          </mxGeometry>
        </mxCell>
        <mxCell id="JywmvB-vhrz7vm3U-4dp-30" style="edgeStyle=orthogonalEdgeStyle;rounded=0;orthogonalLoop=1;jettySize=auto;html=1;fontSize=15;fontColor=#FFFFFF;" parent="1" source="JywmvB-vhrz7vm3U-4dp-32" target="JywmvB-vhrz7vm3U-4dp-7" edge="1">
          <mxGeometry relative="1" as="geometry" />
        </mxCell>
        <mxCell id="JywmvB-vhrz7vm3U-4dp-31" value="&lt;font color=&quot;#000000&quot;&gt;根据业务线进行配置&lt;/font&gt;" style="edgeLabel;html=1;align=center;verticalAlign=middle;resizable=0;points=[];fontSize=15;fontColor=#FFFFFF;" parent="JywmvB-vhrz7vm3U-4dp-30" vertex="1" connectable="0">
          <mxGeometry x="-0.2361" y="-1" relative="1" as="geometry">
            <mxPoint x="17" y="-1" as="offset" />
          </mxGeometry>
        </mxCell>
        <mxCell id="JywmvB-vhrz7vm3U-4dp-32" value="&lt;font style=&quot;font-size: 15px;&quot; color=&quot;#ffffff&quot;&gt;Form平台配置&lt;/font&gt;" style="rounded=1;whiteSpace=wrap;html=1;fillColor=#1061B0;" parent="1" vertex="1">
          <mxGeometry x="4716" y="2358.25" width="173" height="77.5" as="geometry" />
        </mxCell>
        <object placeholders="1" c4Name="用车服务" c4Type="SDK B方案增量更新" c4Description="" label="&lt;font style=&quot;font-size: 16px&quot;&gt;&lt;b&gt;%c4Name%&lt;/b&gt;&lt;/font&gt;&lt;div&gt;[%c4Type%]&lt;/div&gt;&lt;br&gt;&lt;div&gt;&lt;font style=&quot;font-size: 11px&quot;&gt;&lt;font color=&quot;#cccccc&quot;&gt;%c4Description%&lt;/font&gt;&lt;/div&gt;" id="JywmvB-vhrz7vm3U-4dp-33">
          <mxCell style="rounded=1;whiteSpace=wrap;html=1;labelBackgroundColor=none;fillColor=#1061B0;fontColor=#ffffff;align=center;arcSize=10;strokeColor=#0D5091;metaEdit=1;resizable=0;points=[[0.25,0,0],[0.5,0,0],[0.75,0,0],[1,0.25,0],[1,0.5,0],[1,0.75,0],[0.75,1,0],[0.5,1,0],[0.25,1,0],[0,0.75,0],[0,0.5,0],[0,0.25,0]];fontSize=15;" parent="1" vertex="1">
            <mxGeometry x="5227" y="2032.5" width="240" height="120" as="geometry" />
          </mxCell>
        </object>
        <mxCell id="JywmvB-vhrz7vm3U-4dp-34" value="POI &lt;br&gt;SDK" style="whiteSpace=wrap;html=1;aspect=fixed;fontSize=15;fontColor=#000000;fillColor=#D5E8D4;" parent="1" vertex="1">
          <mxGeometry x="5307.5" y="2108.5" width="79" height="79" as="geometry" />
        </mxCell>
        <object placeholders="1" c4Name="租车服务" c4Type="" c4Description="" label="&lt;font style=&quot;font-size: 16px&quot;&gt;&lt;b&gt;%c4Name%&lt;/b&gt;&lt;/font&gt;&lt;div&gt;[%c4Type%]&lt;/div&gt;&lt;br&gt;&lt;div&gt;&lt;font style=&quot;font-size: 11px&quot;&gt;&lt;font color=&quot;#cccccc&quot;&gt;%c4Description%&lt;/font&gt;&lt;/div&gt;" id="JywmvB-vhrz7vm3U-4dp-35">
          <mxCell style="rounded=1;whiteSpace=wrap;html=1;labelBackgroundColor=none;fillColor=#8C8496;fontColor=#ffffff;align=center;arcSize=10;strokeColor=#736782;metaEdit=1;resizable=0;points=[[0.25,0,0],[0.5,0,0],[0.75,0,0],[1,0.25,0],[1,0.5,0],[1,0.75,0],[0.75,1,0],[0.5,1,0],[0.25,1,0],[0,0.75,0],[0,0.5,0],[0,0.25,0]];fontSize=15;" parent="1" vertex="1">
            <mxGeometry x="4889" y="2032.5" width="240" height="120" as="geometry" />
          </mxCell>
        </object>
        <mxCell id="JywmvB-vhrz7vm3U-4dp-36" style="edgeStyle=orthogonalEdgeStyle;rounded=0;orthogonalLoop=1;jettySize=auto;html=1;entryX=0.25;entryY=1;entryDx=0;entryDy=0;entryPerimeter=0;fontSize=15;fontColor=#000000;" parent="1" source="JywmvB-vhrz7vm3U-4dp-37" target="JywmvB-vhrz7vm3U-4dp-7" edge="1">
          <mxGeometry relative="1" as="geometry" />
        </mxCell>
        <mxCell id="JywmvB-vhrz7vm3U-4dp-37" value="&lt;font color=&quot;#ffffff&quot;&gt;POI&lt;br&gt;Redis&lt;/font&gt;" style="shape=cylinder3;whiteSpace=wrap;html=1;boundedLbl=1;backgroundOutline=1;size=15;fontSize=15;fontColor=#000000;fillColor=#1061B0;" parent="1" vertex="1">
          <mxGeometry x="4929" y="2468" width="60" height="80" as="geometry" />
        </mxCell>
      </root>
    </mxGraphModel>
  </diagram>
  <diagram id="j_DY-2ZRMfnexZhP-WiO" name="缓存设计">
    <mxGraphModel dx="607" dy="-405" grid="1" gridSize="10" guides="1" tooltips="1" connect="1" arrows="1" fold="1" page="1" pageScale="1" pageWidth="827" pageHeight="1169" math="0" shadow="0">
      <root>
        <mxCell id="0" />
        <mxCell id="1" parent="0" />
        <object placeholders="1" c4Name="POI 中台" c4Type="" c4Application="" label="&lt;font style=&quot;font-size: 16px&quot;&gt;&lt;b&gt;&lt;div style=&quot;text-align: left&quot;&gt;%c4Name%&lt;/div&gt;&lt;/b&gt;&lt;/font&gt;&lt;div style=&quot;text-align: left&quot;&gt;[%c4Application%]&lt;/div&gt;" id="P3eT0y8ZNAPA90NeWUkd-2">
          <mxCell style="rounded=1;fontSize=11;whiteSpace=wrap;html=1;dashed=1;arcSize=20;fillColor=#ffe6cc;strokeColor=#d79b00;labelBackgroundColor=none;align=left;verticalAlign=bottom;labelBorderColor=none;spacingTop=0;spacing=10;dashPattern=8 4;metaEdit=1;rotatable=0;perimeter=rectanglePerimeter;noLabel=0;labelPadding=0;allowArrows=0;connectable=0;expand=0;recursiveResize=0;editable=1;pointerEvents=0;absoluteArcSize=1;points=[[0.25,0,0],[0.5,0,0],[0.75,0,0],[1,0.25,0],[1,0.5,0],[1,0.75,0],[0.75,1,0],[0.5,1,0],[0.25,1,0],[0,0.75,0],[0,0.5,0],[0,0.25,0]];" parent="1" vertex="1">
            <mxGeometry x="1110" y="1360" width="610" height="260" as="geometry" />
          </mxCell>
        </object>
        <mxCell id="Jf5C5ncw9Qjgu21DeCvS-6" style="edgeStyle=orthogonalEdgeStyle;rounded=0;orthogonalLoop=1;jettySize=auto;html=1;entryX=0.446;entryY=-0.008;entryDx=0;entryDy=0;entryPerimeter=0;" parent="1" source="Jf5C5ncw9Qjgu21DeCvS-2" target="Jf5C5ncw9Qjgu21DeCvS-4" edge="1">
          <mxGeometry relative="1" as="geometry">
            <Array as="points">
              <mxPoint x="1317" y="1590" />
              <mxPoint x="1317" y="1590" />
            </Array>
          </mxGeometry>
        </mxCell>
        <mxCell id="Jf5C5ncw9Qjgu21DeCvS-7" value="点火加载全量缓存&lt;br&gt;实现CacheManager接口" style="edgeLabel;html=1;align=center;verticalAlign=middle;resizable=0;points=[];" parent="Jf5C5ncw9Qjgu21DeCvS-6" vertex="1" connectable="0">
          <mxGeometry x="0.5468" y="1" relative="1" as="geometry">
            <mxPoint x="-8" y="-69" as="offset" />
          </mxGeometry>
        </mxCell>
        <mxCell id="Jf5C5ncw9Qjgu21DeCvS-2" value="业务机场，火车站，全量缓存&lt;br&gt;业务和locale 作为数据的属性写入缓存" style="rounded=1;whiteSpace=wrap;html=1;fillColor=#e1d5e7;strokeColor=#9673a6;" parent="1" vertex="1">
          <mxGeometry x="1250" y="1540" width="330" height="60" as="geometry" />
        </mxCell>
        <mxCell id="Jf5C5ncw9Qjgu21DeCvS-14" style="edgeStyle=orthogonalEdgeStyle;rounded=0;orthogonalLoop=1;jettySize=auto;html=1;" parent="1" source="Jf5C5ncw9Qjgu21DeCvS-3" target="Jf5C5ncw9Qjgu21DeCvS-10" edge="1">
          <mxGeometry relative="1" as="geometry" />
        </mxCell>
        <mxCell id="Jf5C5ncw9Qjgu21DeCvS-3" value="&lt;b&gt;POI 缓存&lt;br&gt;酒店缓存&lt;br&gt;&lt;/b&gt;&lt;br&gt;Redis&amp;nbsp;" style="shape=cylinder3;whiteSpace=wrap;html=1;boundedLbl=1;backgroundOutline=1;size=15;fillColor=#e1d5e7;strokeColor=#9673a6;" parent="1" vertex="1">
          <mxGeometry x="950" y="1415" width="110" height="160" as="geometry" />
        </mxCell>
        <mxCell id="Jf5C5ncw9Qjgu21DeCvS-8" style="edgeStyle=orthogonalEdgeStyle;rounded=0;orthogonalLoop=1;jettySize=auto;html=1;entryX=0.5;entryY=1;entryDx=0;entryDy=0;" parent="1" source="Jf5C5ncw9Qjgu21DeCvS-4" target="Jf5C5ncw9Qjgu21DeCvS-2" edge="1">
          <mxGeometry relative="1" as="geometry">
            <Array as="points">
              <mxPoint x="1415" y="1720" />
              <mxPoint x="1415" y="1720" />
            </Array>
          </mxGeometry>
        </mxCell>
        <mxCell id="Jf5C5ncw9Qjgu21DeCvS-9" value="定时进行全量更新" style="edgeLabel;html=1;align=center;verticalAlign=middle;resizable=0;points=[];" parent="Jf5C5ncw9Qjgu21DeCvS-8" vertex="1" connectable="0">
          <mxGeometry x="-0.2818" y="3" relative="1" as="geometry">
            <mxPoint x="3" y="-11" as="offset" />
          </mxGeometry>
        </mxCell>
        <mxCell id="Jf5C5ncw9Qjgu21DeCvS-15" style="edgeStyle=orthogonalEdgeStyle;rounded=0;orthogonalLoop=1;jettySize=auto;html=1;dashed=1;" parent="1" source="Jf5C5ncw9Qjgu21DeCvS-4" target="Jf5C5ncw9Qjgu21DeCvS-2" edge="1">
          <mxGeometry relative="1" as="geometry">
            <mxPoint x="1490" y="1590" as="targetPoint" />
            <Array as="points">
              <mxPoint x="1520" y="1840" />
            </Array>
          </mxGeometry>
        </mxCell>
        <mxCell id="Jf5C5ncw9Qjgu21DeCvS-16" value="BingLog 监听" style="edgeLabel;html=1;align=center;verticalAlign=middle;resizable=0;points=[];" parent="Jf5C5ncw9Qjgu21DeCvS-15" vertex="1" connectable="0">
          <mxGeometry x="-0.2307" y="-2" relative="1" as="geometry">
            <mxPoint y="-111" as="offset" />
          </mxGeometry>
        </mxCell>
        <object placeholders="1" c4Type="数据库" c4Container="" c4Technology="Mysql" c4Description="" label="&lt;font style=&quot;font-size: 16px&quot;&gt;&lt;b&gt;%c4Type%&lt;/font&gt;&lt;div&gt;[%c4Container%:&amp;nbsp;%c4Technology%]&lt;/div&gt;&lt;br&gt;&lt;div&gt;&lt;font style=&quot;font-size: 11px&quot;&gt;&lt;font color=&quot;#E6E6E6&quot;&gt;%c4Description%&lt;/font&gt;&lt;/div&gt;" id="Jf5C5ncw9Qjgu21DeCvS-4">
          <mxCell style="shape=cylinder3;size=15;whiteSpace=wrap;html=1;boundedLbl=1;rounded=0;labelBackgroundColor=none;fillColor=#23A2D9;fontSize=12;fontColor=#ffffff;align=center;strokeColor=#0E7DAD;metaEdit=1;points=[[0.5,0,0],[1,0.25,0],[1,0.5,0],[1,0.75,0],[0.5,1,0],[0,0.75,0],[0,0.5,0],[0,0.25,0]];resizable=0;" parent="1" vertex="1">
            <mxGeometry x="1210" y="1754" width="240" height="120" as="geometry" />
          </mxCell>
        </object>
        <mxCell id="Jf5C5ncw9Qjgu21DeCvS-10" value="业务代码" style="rounded=1;whiteSpace=wrap;html=1;fillColor=#d5e8d4;strokeColor=#82b366;" parent="1" vertex="1">
          <mxGeometry x="1250" y="1390" width="330" height="60" as="geometry" />
        </mxCell>
        <mxCell id="Jf5C5ncw9Qjgu21DeCvS-17" value="" style="html=1;shadow=0;dashed=0;align=center;verticalAlign=middle;shape=mxgraph.arrows2.arrow;dy=0.6;dx=40;direction=north;notch=0;" parent="1" vertex="1">
          <mxGeometry x="1350" y="1460" width="30" height="70" as="geometry" />
        </mxCell>
        <mxCell id="Jf5C5ncw9Qjgu21DeCvS-19" value="" style="html=1;shadow=0;dashed=0;align=center;verticalAlign=middle;shape=mxgraph.arrows2.arrow;dy=0.6;dx=40;direction=north;notch=0;" parent="1" vertex="1">
          <mxGeometry x="1450" y="1460" width="30" height="70" as="geometry" />
        </mxCell>
      </root>
    </mxGraphModel>
  </diagram>
  <diagram id="laJI9IHQbc36glSzt2Sh" name="POI 搜索逻辑">
    <mxGraphModel dx="2261" dy="764" grid="1" gridSize="10" guides="1" tooltips="1" connect="1" arrows="1" fold="1" page="1" pageScale="1" pageWidth="827" pageHeight="1169" math="0" shadow="0">
      <root>
        <mxCell id="0" />
        <mxCell id="1" parent="0" />
        <mxCell id="t5S5B8A3b8xG88kBTEdM-7" value="" style="edgeStyle=orthogonalEdgeStyle;rounded=0;orthogonalLoop=1;jettySize=auto;html=1;" edge="1" parent="1" source="t5S5B8A3b8xG88kBTEdM-1" target="t5S5B8A3b8xG88kBTEdM-6">
          <mxGeometry relative="1" as="geometry" />
        </mxCell>
        <mxCell id="t5S5B8A3b8xG88kBTEdM-1" value="POI 搜索接口&lt;br&gt;&lt;br&gt;核心参数：&amp;nbsp;&lt;br&gt;1. &lt;font face=&quot;Consolas&quot; color=&quot;#008000&quot;&gt;&lt;span style=&quot;background-color: rgb(255, 255, 255);&quot;&gt;&lt;b&gt;query：&lt;/b&gt;&lt;/span&gt;&lt;/font&gt;&lt;span style=&quot;background-color: initial;&quot;&gt;搜索关键词 （必填）&lt;/span&gt;&lt;br&gt;2. citycode： 搜索城市&lt;br&gt;3. citylimit：当前搜索经纬度&lt;br&gt;4. radius：搜索范围&lt;br&gt;5.&amp;nbsp;&lt;span style=&quot;background-color: rgb(255, 255, 255); font-family: Consolas; font-size: 9pt;&quot;&gt;ori： 搜索起始点&lt;br&gt;&lt;/span&gt;6.&amp;nbsp;&lt;span style=&quot;color: rgb(0, 128, 0); font-weight: bold; background-color: rgb(255, 255, 255); font-family: Consolas; font-size: 9pt;&quot;&gt;location: 搜索者的位置&lt;br&gt;7.&amp;nbsp;&lt;/span&gt;&lt;span style=&quot;background-color: rgb(255, 255, 255); font-family: Consolas; font-size: 9pt;&quot;&gt;MapTypes： 指定图商（谷歌，高德，百度）&lt;/span&gt;" style="rounded=0;whiteSpace=wrap;html=1;" vertex="1" parent="1">
          <mxGeometry x="132.5" y="180" width="495" height="160" as="geometry" />
        </mxCell>
        <mxCell id="t5S5B8A3b8xG88kBTEdM-8" style="edgeStyle=orthogonalEdgeStyle;rounded=0;orthogonalLoop=1;jettySize=auto;html=1;" edge="1" parent="1" source="t5S5B8A3b8xG88kBTEdM-6">
          <mxGeometry relative="1" as="geometry">
            <mxPoint x="140" y="535" as="targetPoint" />
          </mxGeometry>
        </mxCell>
        <mxCell id="t5S5B8A3b8xG88kBTEdM-10" value="是" style="edgeLabel;html=1;align=center;verticalAlign=middle;resizable=0;points=[];" vertex="1" connectable="0" parent="t5S5B8A3b8xG88kBTEdM-8">
          <mxGeometry x="-0.2848" y="-1" relative="1" as="geometry">
            <mxPoint as="offset" />
          </mxGeometry>
        </mxCell>
        <mxCell id="t5S5B8A3b8xG88kBTEdM-13" value="" style="edgeStyle=orthogonalEdgeStyle;rounded=0;orthogonalLoop=1;jettySize=auto;html=1;" edge="1" parent="1" source="t5S5B8A3b8xG88kBTEdM-6" target="t5S5B8A3b8xG88kBTEdM-12">
          <mxGeometry relative="1" as="geometry" />
        </mxCell>
        <mxCell id="t5S5B8A3b8xG88kBTEdM-6" value="是否含敏感词，配置在Qconfig里面" style="rhombus;whiteSpace=wrap;html=1;rounded=0;" vertex="1" parent="1">
          <mxGeometry x="305" y="470" width="150" height="130" as="geometry" />
        </mxCell>
        <mxCell id="t5S5B8A3b8xG88kBTEdM-11" value="退出" style="rounded=0;whiteSpace=wrap;html=1;" vertex="1" parent="1">
          <mxGeometry x="20" y="505" width="120" height="60" as="geometry" />
        </mxCell>
        <mxCell id="t5S5B8A3b8xG88kBTEdM-19" style="edgeStyle=orthogonalEdgeStyle;rounded=0;orthogonalLoop=1;jettySize=auto;html=1;" edge="1" parent="1" source="t5S5B8A3b8xG88kBTEdM-12" target="t5S5B8A3b8xG88kBTEdM-14">
          <mxGeometry relative="1" as="geometry">
            <Array as="points">
              <mxPoint x="380" y="800" />
              <mxPoint x="-270" y="800" />
            </Array>
          </mxGeometry>
        </mxCell>
        <mxCell id="t5S5B8A3b8xG88kBTEdM-26" value="并发请求" style="edgeLabel;html=1;align=center;verticalAlign=middle;resizable=0;points=[];" vertex="1" connectable="0" parent="t5S5B8A3b8xG88kBTEdM-19">
          <mxGeometry x="0.71" y="3" relative="1" as="geometry">
            <mxPoint as="offset" />
          </mxGeometry>
        </mxCell>
        <mxCell id="t5S5B8A3b8xG88kBTEdM-20" style="edgeStyle=orthogonalEdgeStyle;rounded=0;orthogonalLoop=1;jettySize=auto;html=1;" edge="1" parent="1" source="t5S5B8A3b8xG88kBTEdM-12" target="t5S5B8A3b8xG88kBTEdM-16">
          <mxGeometry relative="1" as="geometry" />
        </mxCell>
        <mxCell id="t5S5B8A3b8xG88kBTEdM-27" value="并发请求" style="edgeLabel;html=1;align=center;verticalAlign=middle;resizable=0;points=[];" vertex="1" connectable="0" parent="t5S5B8A3b8xG88kBTEdM-20">
          <mxGeometry x="0.4375" y="-1" relative="1" as="geometry">
            <mxPoint as="offset" />
          </mxGeometry>
        </mxCell>
        <mxCell id="t5S5B8A3b8xG88kBTEdM-21" style="edgeStyle=orthogonalEdgeStyle;rounded=0;orthogonalLoop=1;jettySize=auto;html=1;" edge="1" parent="1" source="t5S5B8A3b8xG88kBTEdM-12" target="t5S5B8A3b8xG88kBTEdM-17">
          <mxGeometry relative="1" as="geometry">
            <Array as="points">
              <mxPoint x="380" y="800" />
              <mxPoint x="590" y="800" />
            </Array>
          </mxGeometry>
        </mxCell>
        <mxCell id="t5S5B8A3b8xG88kBTEdM-28" value="并发请求" style="edgeLabel;html=1;align=center;verticalAlign=middle;resizable=0;points=[];" vertex="1" connectable="0" parent="t5S5B8A3b8xG88kBTEdM-21">
          <mxGeometry x="0.6667" y="-2" relative="1" as="geometry">
            <mxPoint as="offset" />
          </mxGeometry>
        </mxCell>
        <mxCell id="t5S5B8A3b8xG88kBTEdM-22" style="edgeStyle=orthogonalEdgeStyle;rounded=0;orthogonalLoop=1;jettySize=auto;html=1;" edge="1" parent="1" source="t5S5B8A3b8xG88kBTEdM-12" target="t5S5B8A3b8xG88kBTEdM-18">
          <mxGeometry relative="1" as="geometry">
            <Array as="points">
              <mxPoint x="380" y="800" />
              <mxPoint x="840" y="800" />
            </Array>
          </mxGeometry>
        </mxCell>
        <mxCell id="t5S5B8A3b8xG88kBTEdM-23" value="酒店一定会进行搜索" style="edgeLabel;html=1;align=center;verticalAlign=middle;resizable=0;points=[];" vertex="1" connectable="0" parent="t5S5B8A3b8xG88kBTEdM-22">
          <mxGeometry x="0.5621" relative="1" as="geometry">
            <mxPoint x="-33" as="offset" />
          </mxGeometry>
        </mxCell>
        <mxCell id="t5S5B8A3b8xG88kBTEdM-12" value="1. 根据条件决定使用图商：&lt;br&gt;境内走百度&lt;br&gt;境外走谷歌&lt;br&gt;租车规则&amp;nbsp;" style="whiteSpace=wrap;html=1;rounded=0;" vertex="1" parent="1">
          <mxGeometry x="295" y="650" width="170" height="110" as="geometry" />
        </mxCell>
        <mxCell id="t5S5B8A3b8xG88kBTEdM-32" style="edgeStyle=orthogonalEdgeStyle;rounded=0;orthogonalLoop=1;jettySize=auto;html=1;" edge="1" parent="1" source="t5S5B8A3b8xG88kBTEdM-14" target="t5S5B8A3b8xG88kBTEdM-31">
          <mxGeometry relative="1" as="geometry" />
        </mxCell>
        <mxCell id="t5S5B8A3b8xG88kBTEdM-14" value="谷歌&lt;br&gt;&lt;br&gt;1. 查询谷歌autocomplete ，缓存key：&amp;nbsp;&lt;span style=&quot;background-color: rgb(255, 255, 255); font-size: 14px; letter-spacing: 0px; text-align: left;&quot;&gt;雅乐轩:zh-CN:KR:357ca3:50&amp;nbsp;&lt;br&gt;&lt;/span&gt;&lt;span style=&quot;font-family: Consolas; font-size: 9pt; color: rgb(102, 14, 122); font-weight: bold;&quot;&gt;geoRedis&lt;/span&gt;&lt;span style=&quot;background-color: rgb(255, 255, 255); font-family: Consolas; font-size: 9pt;&quot;&gt;.generateCacheKey(keyword, language, countryCode, centerCode, param.getRadiusInKm())&lt;br&gt;&lt;/span&gt;&lt;span style=&quot;background-color: rgb(255, 255, 255); text-align: left;&quot;&gt;&lt;span style=&quot;font-size: 14px; letter-spacing: 0px;&quot;&gt;2.&amp;nbsp; &lt;/span&gt;&lt;span style=&quot;font-size: 14px;&quot;&gt;https://developers.google.com/maps/documentation/places/web-service/autocomplete&amp;nbsp;&amp;nbsp;&lt;br&gt;&lt;/span&gt;核心参数： input ，&amp;nbsp;&lt;/span&gt;&lt;span style=&quot;background-color: rgb(255, 255, 255); font-family: Consolas; font-size: 9pt;&quot;&gt;language ，&lt;/span&gt;&lt;span style=&quot;background-color: rgb(255, 255, 255); font-family: Consolas; font-size: 9pt;&quot;&gt;location，&lt;/span&gt;&lt;span style=&quot;background-color: rgb(255, 255, 255); font-family: Consolas; font-size: 9pt;&quot;&gt;radius ，&amp;nbsp;&lt;/span&gt;&lt;span style=&quot;background-color: rgb(255, 255, 255); font-family: Consolas; font-size: 9pt;&quot;&gt;CountryCode&lt;br&gt;3. 主要获得 poiid 和 名称（含多语言）&lt;br&gt;&lt;/span&gt;" style="rounded=0;whiteSpace=wrap;html=1;" vertex="1" parent="1">
          <mxGeometry x="-690" y="880" width="850" height="140" as="geometry" />
        </mxCell>
        <mxCell id="t5S5B8A3b8xG88kBTEdM-16" value="高德" style="rounded=0;whiteSpace=wrap;html=1;" vertex="1" parent="1">
          <mxGeometry x="280" y="880" width="120" height="60" as="geometry" />
        </mxCell>
        <mxCell id="t5S5B8A3b8xG88kBTEdM-17" value="百度" style="rounded=0;whiteSpace=wrap;html=1;" vertex="1" parent="1">
          <mxGeometry x="530" y="880" width="120" height="60" as="geometry" />
        </mxCell>
        <mxCell id="t5S5B8A3b8xG88kBTEdM-18" value="酒店" style="rounded=0;whiteSpace=wrap;html=1;" vertex="1" parent="1">
          <mxGeometry x="780" y="880" width="120" height="60" as="geometry" />
        </mxCell>
        <mxCell id="t5S5B8A3b8xG88kBTEdM-25" style="edgeStyle=orthogonalEdgeStyle;rounded=0;orthogonalLoop=1;jettySize=auto;html=1;entryX=1;entryY=0.5;entryDx=0;entryDy=0;" edge="1" parent="1" source="t5S5B8A3b8xG88kBTEdM-24" target="t5S5B8A3b8xG88kBTEdM-12">
          <mxGeometry relative="1" as="geometry" />
        </mxCell>
        <mxCell id="t5S5B8A3b8xG88kBTEdM-24" value="Form 平台配置规则&lt;br&gt;https://devhub.package.ctripcorp.com/form/biz?id=9qoqgopt6oqi2" style="rounded=1;whiteSpace=wrap;html=1;" vertex="1" parent="1">
          <mxGeometry x="600" y="675" width="370" height="60" as="geometry" />
        </mxCell>
        <mxCell id="t5S5B8A3b8xG88kBTEdM-30" value="后置处理器：&amp;nbsp;&lt;br&gt;&lt;pre style=&quot;background-color: rgb(255, 255, 255); font-family: Consolas; font-size: 9pt;&quot;&gt;&lt;span style=&quot;color:#660e7a;font-weight:bold;&quot;&gt;commonInvalidAddressFilter ： 过滤无效POI，经纬度不合理，地址或者名字空的&lt;/span&gt;&lt;/pre&gt;&lt;pre style=&quot;background-color: rgb(255, 255, 255); font-family: Consolas; font-size: 9pt;&quot;&gt;&lt;pre style=&quot;font-family: Consolas; font-size: 9pt;&quot;&gt;&lt;span style=&quot;color:#660e7a;font-weight:bold;&quot;&gt;poiTypeFilter： &lt;/span&gt;&lt;/pre&gt;&lt;pre style=&quot;font-family: Consolas; font-size: 9pt;&quot;&gt;&lt;span style=&quot;color:#660e7a;font-weight:bold;&quot;&gt;sensitiveWordsFilter： 敏感词的结果去掉。&lt;/span&gt;&lt;/pre&gt;&lt;pre style=&quot;font-family: Consolas; font-size: 9pt;&quot;&gt;&lt;span style=&quot;color:#660e7a;font-weight:bold;&quot;&gt;radiusFilter： 范围过滤&lt;/span&gt;&lt;/pre&gt;&lt;pre style=&quot;font-family: Consolas; font-size: 9pt;&quot;&gt;&lt;span style=&quot;color:#660e7a;font-weight:bold;&quot;&gt;mapLocationFixFilter： &lt;/span&gt;&lt;/pre&gt;&lt;pre style=&quot;font-family: Consolas; font-size: 9pt;&quot;&gt;&lt;span style=&quot;color:#660e7a;font-weight:bold;&quot;&gt;hmtGsPoiFilter： &lt;/span&gt;&lt;/pre&gt;&lt;pre style=&quot;font-family: Consolas; font-size: 9pt;&quot;&gt;&lt;span style=&quot;color:#660e7a;font-weight:bold;&quot;&gt;districtFilter： &lt;/span&gt;&lt;/pre&gt;&lt;pre style=&quot;font-family: Consolas; font-size: 9pt;&quot;&gt;&lt;span style=&quot;color:#660e7a;font-weight:bold;&quot;&gt;coordinateTypeFilter：&lt;/span&gt;&lt;/pre&gt;&lt;pre style=&quot;font-family: Consolas; font-size: 9pt;&quot;&gt;&lt;span style=&quot;color:#660e7a;font-weight:bold;&quot;&gt;locationStandardFilter：&lt;/span&gt;&lt;/pre&gt;&lt;pre style=&quot;font-family: Consolas; font-size: 9pt;&quot;&gt;&lt;span style=&quot;color:#660e7a;font-weight:bold;&quot;&gt;commonDuplicateAddressFilter：&lt;/span&gt;&lt;/pre&gt;&lt;pre style=&quot;font-family: Consolas; font-size: 9pt;&quot;&gt;&lt;span style=&quot;color:#660e7a;font-weight:bold;&quot;&gt;poiCityInfoFilter：&lt;/span&gt;&lt;/pre&gt;&lt;pre style=&quot;font-family: Consolas; font-size: 9pt;&quot;&gt;&lt;span style=&quot;color:#660e7a;font-weight:bold;&quot;&gt;cityInfoFilter ： 填充City信息&lt;/span&gt;&lt;/pre&gt;&lt;pre style=&quot;font-family: Consolas; font-size: 9pt;&quot;&gt;&lt;span style=&quot;color:#660e7a;font-weight:bold;&quot;&gt;addressRangeFilter： &lt;/span&gt;&lt;/pre&gt;&lt;pre style=&quot;font-family: Consolas; font-size: 9pt;&quot;&gt;&lt;span style=&quot;color:#660e7a;font-weight:bold;&quot;&gt;esHotelAddressConcatFilter&lt;/span&gt;&lt;/pre&gt;&lt;/pre&gt;" style="rounded=0;whiteSpace=wrap;html=1;" vertex="1" parent="1">
          <mxGeometry x="30" y="1730" width="640" height="590" as="geometry" />
        </mxCell>
        <mxCell id="t5S5B8A3b8xG88kBTEdM-31" value="谷歌地址详情查询：&amp;nbsp;details&amp;nbsp;&amp;nbsp;&lt;br&gt;https://developers.google.com/maps/documentation/places/web-service/details&lt;br&gt;缓存key：&amp;nbsp;&lt;span style=&quot;color: rgb(0, 1, 2); font-family: -apple-system, BlinkMacSystemFont, &amp;quot;Microsoft Yahei&amp;quot;, sans-serif, emoji-one; font-size: 14px; text-align: left; background-color: rgb(214, 233, 255);&quot;&gt;[ChIJkV6AcfGifDURCeC9YTer0Q0:GOOGLE:zh-CN]&amp;nbsp;&lt;br&gt;&lt;br&gt;为了省钱，改成了GEOCODING&lt;br&gt;&lt;br&gt;1.根据缓存key进行缓存查询， 如果缓存没有，查询谷歌接口&amp;nbsp;&lt;br&gt;2. 根据id ，soucetype ， local 去相应图商请求，拿到地址详情，经纬度，（地址名称是拿上一个接口取到的名称接口）&lt;br&gt;&lt;br&gt;遍历查询&lt;br&gt;&lt;br&gt;&lt;/span&gt;" style="rounded=0;whiteSpace=wrap;html=1;" vertex="1" parent="1">
          <mxGeometry x="-580" y="1240" width="630" height="260" as="geometry" />
        </mxCell>
      </root>
    </mxGraphModel>
  </diagram>
</mxfile>
